<svg xmlns="http://www.w3.org/2000/svg"><symbol id="insta" viewBox="0 0 143.6 142.3"><path d="M143.6 100.5c-.5 3.2-.9 6.5-1.5 9.6-3.7 18.1-16.8 30.7-35.3 31.5-23.4.9-46.9.9-70.3 0-20.4-.9-35.1-15.9-35.9-36.2-.8-22.7-.8-45.6 0-68.3C1.4 16.4 15.7 1.6 36.7.7c23.6-1 47.3-.9 70.8.1 19.5.9 33 15.4 35.1 34.7.2 2.2.6 4.3 1 6.4zm-72.4 28.3c11.1 0 22.2.5 33.3-.1 14-.8 24-9.1 24.5-22.3 1-23.5.9-47 0-70.4-.5-12.8-9.8-21.7-22.8-22.1-22.5-.8-45-1-67.5-.2-15.8.6-24.4 9.7-25 25.4-.7 21.4-.7 43 0 64.4.6 15.3 10 24.3 25.4 25.2 10.7.6 21.4.1 32.1.1z"/><path d="M71.7 34.3a36.9 36.9 0 1 1-37.1 36.8 36.8 36.8 0 0 1 37.1-36.8zm-.2 13c-12.9 0-24 11.2-23.9 24s11.1 23.5 23.7 23.6 24.2-11 24.2-23.7a24.3 24.3 0 0 0-24-23.9zm47.1-14.1a8.6 8.6 0 0 1-8.7 8.5 9 9 0 0 1-8.7-8.7 8.5 8.5 0 0 1 9.1-8.6 8.3 8.3 0 0 1 8.3 8.8z"/></symbol><symbol id="linkedin" viewBox="0 0 142 141.2"><path d="M70.8 0h58.9c8.5 0 12.2 3.4 12.2 11.7.1 39.3.1 78.5 0 117.8 0 7.8-3.9 11.6-11.8 11.6H11.7c-7.8 0-11.7-4-11.7-11.8V12.1C0 3.6 3.7 0 12.4 0zm50 120.4c0-16.4.7-32.3-.2-48.1-.5-9.8-5.9-17.4-16.6-19.5s-20.1.1-27.5 9.7c-.2-3.4-.3-5.9-.4-8.4H56.8v66.1h20.4v-6.7c.1-10.6-.2-21.3.3-32 .4-7.6 5.2-11.5 12.5-11.4s9.9 3.6 10.4 11.4.3 16.6.4 24.9c.1 4.7 0 9.3 0 14zM22.6 53.9v66.4h19.9V53.9zm9.6-33.5a11.7 11.7 0 0 0-11.6 12.3 11.9 11.9 0 0 0 11.8 11.6c6.4.1 12.2-5.8 12.2-12.1a12.2 12.2 0 0 0-12.4-11.8z"/></symbol></svg>