<svg xmlns="http://www.w3.org/2000/svg" width="144" height="2.7in" viewBox="0 0 104.5 193.1"><path d="M45.3 27.6l-.2.3-.4 1.3c-.1.4 0 .9-.4 1.2a.5.5 0 0 0-.1.5.7.7 0 0 1-.1.5 6.8 6.8 0 0 0-.7 2c-.1.6-.4 1.2-.5 1.8a6 6 0 0 1-.2 1.2l-.5.5a8 8 0 0 1-.6 3 8.8 8.8 0 0 0-.2 1.6 5.7 5.7 0 0 0-.4 1.4 5.3 5.3 0 0 1-.3 1.2c-.2.2 0 .7-.1 1.1a3.8 3.8 0 0 1-.3 1c-.3.3-.4.5-.1.8l-.2.2c.1.1.2.1.2.2l-.3.3-.5-.6v-2a4.3 4.3 0 0 0-.7 3.2c-.6.5-.3 1.3-.9 1.7l.3.4c-.5.6.1 1.5-.7 1.9s-.1.8.2 1-.8 1.4-.3 2.3a2.4 2.4 0 0 0-.5 1.4c.1.2-.1.5-.1.7a6 6 0 0 0-.2 2.3c-.8 1.6-1 1.8-.6 2.4l-.5.5.3.5a1.5 1.5 0 0 0-.4 1.4 7 7 0 0 1-.3 1.4c0 .2.1.4.1.7a8.4 8.4 0 0 1-.5 2 3.8 3.8 0 0 0-.1 1 11.1 11.1 0 0 0-.9 3.1l-.3.4v.9l-.4 2-.4.7-.5 2.9.4.2a.4.4 0 0 1-.1.3 2.1 2.1 0 0 0-.7 1.7 19.7 19.7 0 0 1-.3 2.4l-.3.3a23.6 23.6 0 0 0-.4 2.8.8.8 0 0 1-.2.4 1.8 1.8 0 0 0-.4 1.4 4.5 4.5 0 0 1-.8 2.2V93l-.3.2-.5 2.6a2.3 2.3 0 0 0 .8-1.2 9 9 0 0 0 .8-2.8l.2-.3c-.1-.3-.3-.5 0-.9a1.6 1.6 0 0 0 .2-1.2 1.3 1.3 0 0 0 .6-1.1 15 15 0 0 0 .2-2l.6-.9V84l.4-.3v-.6l-.2-.3.4-.3a2.8 2.8 0 0 1 .4-1.8c.1-.2-.3-.4 0-.7s0-.5 0-.7l.3-.3.3-2.3h.3c-.1-.3-.2-.5 0-.8s.2-.6.3-.8l-.2-.3.4-.8a8.7 8.7 0 0 1 .5-2.8c0-.2.1-.5.1-.7a1.9 1.9 0 0 1 .2-1.3 1.3 1.3 0 0 0 .3-1 13.3 13.3 0 0 1 .3-2.1h.4v-1.3a5.8 5.8 0 0 1 .3-1.9 8.6 8.6 0 0 0 .1-1.6l.4-.7-.2-.4.4-.2a3.3 3.3 0 0 1 .2-2c.2-.3-.2-.5 0-.9s.5-.9.5-1.4.6-.9.1-1.4l.2-1 .3-.3v-2.1a.7.7 0 0 1 .1-.5c.4-.5.5-1.3 1-1.7s-.1 1-.1 1.5-.2.3-.2.5a8.6 8.6 0 0 1-.5 3.2c-.1.1-.1.1-.1.2a11.4 11.4 0 0 1-.2 2.6c.1.2-.1.4-.1.6A8.6 8.6 0 0 0 38 59c-.3.2-.3.6-.4 1a2.7 2.7 0 0 1-.2 1.3 7.8 7.8 0 0 0-.2 1.4 3.5 3.5 0 0 1-.5 2c-.2.2.3.3 0 .5a5.8 5.8 0 0 1-.3 1.9 10.9 10.9 0 0 1-.5 1.7.3.3 0 0 0 0 .4 2.2 2.2 0 0 1-.2 1.2 1.3 1.3 0 0 0-.2 1v.8c-.1.2-.1.5-.2.6a1.5 1.5 0 0 0-.2 1.1l-.4.4.2.3c.1.6-.3 1.1-.2 1.7s-.2.5-.2.8a1.4 1.4 0 0 1-.2.6 2.5 2.5 0 0 0-.2 1.2c0 .2-.1.3-.1.5a6.4 6.4 0 0 0-.5 2.4.4.4 0 0 1-.1.3 2.2 2.2 0 0 0-.3 1.6 4.3 4.3 0 0 1-.6 1.8v.7l-.4.3c-.1.5.1.9-.2 1.1a1.2 1.2 0 0 1 .1.8 5.3 5.3 0 0 0-.3 1.2 3.6 3.6 0 0 0-.4 1.1v1.2l-.3.5.8-.2a17.1 17.1 0 0 1 2-1.8 2.9 2.9 0 0 0 1.2-.7c.3.1.2-.3.4-.4l.5.2.4-.7 2.1-1.4.5-.2a2.4 2.4 0 0 1 1.3-.9c.5-.1.8-.5 1.1-1h1.3v-.5c.5-.2.8-.6 1.4-.7s.8-.4 1.2-.7l.6-.6h.6c.5-.5.9-1 1.7-1a20.6 20.6 0 0 1 2.6-1.2l1.4-.8.9-.3a5.7 5.7 0 0 0 1.3-.8 5 5 0 0 1 .2-1.2c.2-.3-.1-.7.2-1.1s0-.5 0-.8a1.4 1.4 0 0 1 .6-1.3c-.6-.6.3-1.1 0-1.7h.4a3.7 3.7 0 0 1 .4-2.3l-.2-.4h.5c.3-.4-.1-.7-.3-.9l.5-.2c0-.3-.1-.7-.1-1a1.5 1.5 0 0 1 .2-.9 4.3 4.3 0 0 0 .2-1.2 5.8 5.8 0 0 1 .4-1.9 1.6 1.6 0 0 0 .2-1 3.6 3.6 0 0 1 .2-1l.2-.4c-.1-.5.2-.8.2-1.2s.1-.7.3-1.1a1.7 1.7 0 0 0 .1-.7 2.3 2.3 0 0 1 .4-1.6l.4-.4-.5-.6c.1-.1.2-.2.2-.3v-.2c.4-.5.3-1.1.4-1.7a9.4 9.4 0 0 1 .4-1.6 7.6 7.6 0 0 0 .3-1.6l.4-.3-.2-.8c0-.1-.1-.1 0-.1s.3-1.8.6-2.6a7.1 7.1 0 0 0 .6-2.5 1.5 1.5 0 0 1 .5-1.3c-.1-.2-.2-.4-.1-.5a1.2 1.2 0 0 0 .1-.8c0-.4.2-.6.2-1a1.9 1.9 0 0 0 .2-.8 2.7 2.7 0 0 0 0-.9 8.4 8.4 0 0 0 .5-1.7.3.3 0 0 0 .1-.2l.3-2.5.3-.4c.1-.7-.2-1.5.3-2.1s-.1-.5-.1-.7a2.4 2.4 0 0 0 .2-.8c.1-.2 0-.4.2-.7s0-.4 0-.7a4.5 4.5 0 0 1 .3-1.6c0-.1.1-.1.1-.2s-.1-.6 0-1a3.6 3.6 0 0 0 .2-1.1 10.7 10.7 0 0 1 .6-3.1 2.1 2.1 0 0 0 0-.8l.8-.8.6.2c.7-.3.8-.2 1.5.5s.3 2.3-.6 3.1l-.3 1.4c-.1.3-.1.5-.2.8s.1.6-.1.9 0 .5-.1.7 0 .5-.2.7v.4c0 .4.1.9-.1 1.2s.1.9-.3 1.2 0 .3 0 .5a4.4 4.4 0 0 1-.2 1 12.6 12.6 0 0 0-.4 2.8l-.4.4.2.4c-.4.8 0 1.8-.8 2.4s-.3 1.2 0 1.8a5.6 5.6 0 0 0-.6 2.1 1.5 1.5 0 0 1-.2.9c-.1.3-.1.6-.2.8v.9a2.1 2.1 0 0 0-.4 1 10.4 10.4 0 0 1-.7 3.5.7.7 0 0 0-.1.5 7.5 7.5 0 0 1-.5 2.6c-.1.4-.1.7-.2 1s.1 1-.2 1.4-.1.9-.4 1.4-.1.5 0 .8a1.7 1.7 0 0 1-.5 1.3c.2.9-.3 1.7-.4 2.6s-.3 1.1-.4 1.6a7.7 7.7 0 0 1-.7 2.9v.4a2.3 2.3 0 0 1-.2 1.2 1.5 1.5 0 0 0-.2 1.1 6.6 6.6 0 0 1-.3 1.5c-.2.3 0 .6-.1.9a10.4 10.4 0 0 1-.4 1 3.3 3.3 0 0 0 0 1l-.3 1.3-.5 1c-.1.7.1 1.6-.5 2.3l1 .3a4.2 4.2 0 0 1 2.4-1.4c.3-.5 1-.4 1.4-1a3 3 0 0 1 1.1-.7c.3-.2.2-.6.6-.7a1.7 1.7 0 0 0 .6-.6 1.8 1.8 0 0 1 .8-.9 5.5 5.5 0 0 0 1.1-1c.9-.8 1.5-1.9 2.5-2.5s.5-.5.6-.8a2 2 0 0 1 .9-.9 1.6 1.6 0 0 0 .9-.9c.3-.5.8-.8 1-1.3s.5-.3.7-.6a36.8 36.8 0 0 0 3.3-3.8l1.9-2 1.3-1.5c-.1-.4.3-.2.4-.4a6.3 6.3 0 0 1 1.1-1.2 9.4 9.4 0 0 1 1-1l1-1c.5-.6 1.2-1.1 1.3-2h.5c0-.2 0-.3.1-.4l1.7-1.9 1.2-1.4c.3-.4.9-.7 1.1-1.3s.6-.7 1.1-.9a1.2 1.2 0 0 0 .9-.8c.2-.3.8-.3.8-.8a7.5 7.5 0 0 1 1.6-1.5 3.3 3.3 0 0 0 1.6-1.2l.3-.2 1-.3c.4 0 .3.4.4.7l.3-.2a2.3 2.3 0 0 1 1 .7v.8c-1.2 1-2.7 1.6-3.9 2.7H93v.3a3.4 3.4 0 0 1-.6.6 4.5 4.5 0 0 0-.9 1c-.3.2-.8.4-1 .9l-1 1.4h-.1c-.8.4-1.1 1.2-1.8 1.8a10 10 0 0 0-1.6 2c-.1.1-.3.1-.4.3a12.2 12.2 0 0 0-1.5 1.7c-.3.5-.7.7-.9 1.1l-.8.9c-.2.2-.4.5-.7.6a2.4 2.4 0 0 0-.6.8c-.6.6-1.3 1.2-1.9 1.9a1.8 1.8 0 0 0-.7.8c-.1.4-.7.2-.6.7h-.2c-.2.3-.8 0-.8.6s-.6.5-.6 1l-.2.2a1.9 1.9 0 0 0-.7.8 12.9 12.9 0 0 0-1.6 1.7c-.8.2-.8 1.3-1.7 1.6h-.3v.5a18.6 18.6 0 0 1-2.6 2.3v.4a5.7 5.7 0 0 0-1.4 1.3l.3.2a1.1 1.1 0 0 1 .9-.5l.7.2v-.4h.6c.3-.5.8-.5 1.3-.6s.6.1.8-.2a12.8 12.8 0 0 0 2.8-.7c.6-.2 1.3-.1 1.8-.5h.1a10 10 0 0 0 3-.6l1.8-.2a3.5 3.5 0 0 0 1.7-.2c0-.1.2 0 .3 0s.7.3 1.2.1h1.4c.4-.1.9.1 1.4-.2h.1a4.4 4.4 0 0 0 2 .2c.3.3.7.2 1.1.2a14.9 14.9 0 0 1 2.1.2 6.5 6.5 0 0 1 1.9.4 9.5 9.5 0 0 1 1.8.6l1.8.8a10.2 10.2 0 0 1 3.4 2.4l.9.8c-.1.7.6.9.6 1.6a5.3 5.3 0 0 0 .4 1.6l-.2.2c.4.5.1 1.1.2 1.5l.3.7-.3.6a1.6 1.6 0 0 1 .4 1.2 21.6 21.6 0 0 1-.3 3.5 4.9 4.9 0 0 1-.5 2.4c-.1.1.1.4.1.7l-.7 2.1a3 3 0 0 1-.5 1.9 1.2 1.2 0 0 0-.3 1 2.8 2.8 0 0 1-.4 1.3 5 5 0 0 0-.8 1.4c-.1.5-.3 1-.4 1.5a4.8 4.8 0 0 1-.9 2.1l-.3.7a7.7 7.7 0 0 1-1.2 2.4l-.2.2v.6c-.7.5-.5 1.7-1.5 2v.8h-.2a11.7 11.7 0 0 1-.5 1.1c-.2.6-.7 1-.7 1.6s-.6.9-1 1.4a5.4 5.4 0 0 0-.7 1.3 1 1 0 0 1-.7.7l-.8 1.7h-.3a.7.7 0 0 1-.1.5l-1.2 2.2c-.3.5-.3 1.2-.9 1.5s-.8 1.1-.9 1.8-.4.3-.6.4a20 20 0 0 1-1 2.1 5.7 5.7 0 0 1-1.1 1.2v.2a14.7 14.7 0 0 1-1 1.3 7.3 7.3 0 0 1-.5.9c-.3.5-.5.9-.9 1.1s-.4.4-.3.7a8.2 8.2 0 0 0-1.6 2.2l-.9 1.4v.3a4.5 4.5 0 0 1-.6 1.2 3.5 3.5 0 0 1-1 .8 1.8 1.8 0 0 1-.9 1.3l-1.4-.2c-.1-.4-.5-.7-.6-1.1l-.5-.3a9.4 9.4 0 0 0 .4-1.6c.1-.2.1-.4.2-.5a7.1 7.1 0 0 0 .8-1.8l.4-.6c.5-.8.8-1.7 1.4-2.5a8.6 8.6 0 0 0 1-1.6 5.1 5.1 0 0 1 1.7-1.9 6.5 6.5 0 0 0 1.2-1.5h.7a18.5 18.5 0 0 0 2.3-3.4c.2-.3.7-.4.6-.9s.4-.6.5-.9a2.2 2.2 0 0 0 .5-.8 15.3 15.3 0 0 1 1.7-2.7.4.4 0 0 0 .1-.3 30.3 30.3 0 0 1 2.4-3.8 5.2 5.2 0 0 0 .6-1.3 3.9 3.9 0 0 1 .6-1.1 6.1 6.1 0 0 0 .7-1 7.2 7.2 0 0 1 1.4-2.4 21 21 0 0 0 1.3-2.6l.3-.7a15.4 15.4 0 0 0 .8-1.9l1.2-2.6a2.1 2.1 0 0 0 0-.8l.7-1.1a5.3 5.3 0 0 0 .3-1.2.9.9 0 0 1 .3-.6 1.9 1.9 0 0 0 .3-.8 4.2 4.2 0 0 1 .4-1.2c.3-.4.1-.9.2-1.2s.3-1 .5-1.5a7.6 7.6 0 0 1 .3-1.6 2.6 2.6 0 0 0 .2-1.5v-1.6c0-.4-.2-.8-.2-1.3v-1.4a3.1 3.1 0 0 0-.2-.8l-.2-.2c.2-.8-.5-1.4-.6-2.2a.2.2 0 0 0-.2-.2c-.5-.3-.7-.9-1.1-1.2a14.9 14.9 0 0 0-2.5-1.3 2.4 2.4 0 0 0-1.6-.5 1.7 1.7 0 0 0-1.4-.3l-.3-.4c-.7-.1-1.3-.4-1.9-.2h-.2l-2.7-.4v-.3l-1.2-.2v.6a7.5 7.5 0 0 0-1.5 0c-.4 0-.8-.2-1.2.1a.2.2 0 0 1-.3 0c-.4 0-.7-.3-1.1 0s-.9 0-1.2.2h-.4c-.5-.3-1-.1-1.5-.2l-.3.5-1.6-.2-.2.4c-.4.1-.8-.6-1.3-.3l.2.2-.6.9h-.8l-.3-.7h-.8l-.6.8v.4c-.3.2-.4.6-1 .5s-.2-.7-.7-.5l-.4.8-1.1-.4-.3.5c-.3.1-.7 0-.8.6h-.7a2.2 2.2 0 0 1-2.2.3c-.4-.2-.6.2-1 .1s-.3.2-.4.5-.2.1-.4.2v.5a5.8 5.8 0 0 1-1.8.8 5.5 5.5 0 0 0-1.5.8v-.2L60 80.4l-1.4 1.2h-.4l-.2.2a12.9 12.9 0 0 1-1.7 1.6c-.4.2-.6.7-.9 1.1a4.3 4.3 0 0 1-.4 2.2c-.2.5-.2 1-.4 1.5a7.7 7.7 0 0 0-.2 1.5c0 .2-.1.3-.1.4a6.1 6.1 0 0 0-.5 1.8c.1.7-.4 1.2-.4 1.9s-.2.2-.3.3.1.3.1.4a5.7 5.7 0 0 1-.4 1.4c-.2.2-.1.5-.2.7a1.9 1.9 0 0 0-.2.7 1.4 1.4 0 0 1-.2.7 4.7 4.7 0 0 0-.3 1.7c-.1.6-.5 1.1-.5 1.7a2.9 2.9 0 0 1-.4 1.6v.5l-.3.3-.3 2.5-.5.9.2.3a2.7 2.7 0 0 0-.4 2l-.7.5a1.5 1.5 0 0 1 .1 1.3 10.1 10.1 0 0 0-.5 2.5c-.5.3-.5.3-.5.8h.3v.5h-.2c-.5.2-.4.7-.5 1.1a10.5 10.5 0 0 1-.4 1.7c-.1.2 0 .5 0 .8v1.3H47l-.8 3.7h.6a4.1 4.1 0 0 0 .1-1.2c-.1-.5.2-.8.5-1.1s-.2-.5-.1-.6.2-.8.4-1.1a3.9 3.9 0 0 0 .4-1.8h.3a8 8 0 0 1 .3-1.5l.7-1.2h-.1l.7-1.6v-.6l.6-.6c.1-.3-.1-.7.2-1l.6-.8-.2-.2c.3-.6.3-1.2.8-1.6a.8.8 0 0 0 .2-.5 2.9 2.9 0 0 1 1.1-1.9l-.3-.4c.1-.3.4-.3.8-.2l-.3-1.1.6-.7v-.5l.6-.5h-.1a7.5 7.5 0 0 1 .7-1.2c0-.1.2-.2.2-.3s.4-1 .7-1.4.2-.9.6-1.2a4.7 4.7 0 0 0 .6-.9l.3-.8.4-.2-.2-.4c.5-.4.4-1.3 1.1-1.7a3.5 3.5 0 0 1 .9-1.7l.4.2a4.3 4.3 0 0 0 .4-1.4l.3-.5.4.3v-.6h.1l-.2-.3.3-.6h.4v-.9l.8-.5h.2v-.8a20.9 20.9 0 0 0 1.4-1.7c.1-.1.1-.2.3-.3s.3-.3.3-.4.3-.5.6-.7a1.5 1.5 0 0 1 .6-1.3 2.4 2.4 0 0 0 .6-.9h.6c0 .5-.4.6-.6.8l-.3 1.3-.5.4v.5a3.3 3.3 0 0 0-1 1.2 2.3 2.3 0 0 1-.7 1c-.2.2-.5.3-.5.7l-.3.4c-.1.4-.5.4-.6.8a3.2 3.2 0 0 1-.3.9.5.5 0 0 1-.5.5c-.1.3-.1.5-.2.8l-.3.6c-.3.3-.7.5-.7.7s-.7 1.4-1 2.3v.7c-.4.1-.9-.1-1.1.6l.7.2-.6.3c0 .5 0 .9-.3 1.1a1.6 1.6 0 0 0-.3 1.3h-.4l-.3 1.7-.5.4v.6h-.3l-.6 1.1h-.4l-.3.4v1.2c0 .4-.5.6-.9.9l.2 1-.6.6.2.2c-.2.2-.5.4-.4.8l-.2.4c-.3.8-.6 1.5-.8 2.2a2.7 2.7 0 0 1-1 1.6l.2.2-1 .8.4.6c0 .2.1.3 0 .3a2.5 2.5 0 0 0-.4.9c-.1.4-.5.7-.6 1.2s-.6 1-.6 1.8v.4l-.5.3c.3.8.2 1-.8 1.8l.2.3-.5.5a3.3 3.3 0 0 1 0 2.6l-.7.7.4.5-.4 1a5.9 5.9 0 0 1-.7 2.5 2 2 0 0 0-.1.7 2.4 2.4 0 0 0-.2.8c-.1.3-.1.7-.2 1.1s-.4.4-.5.7-.1.3-.2.5h.4l-.3 1.1c-.1.4 0 .9-.1 1.3a4.9 4.9 0 0 0-.1 1.2c0 .4-.3.7-.4 1.1s.1.8-.2 1.2-.1.7-.1 1.1-.3.7-.4 1.1h-.3c-.2.5.2.7.4.9l-.4.9c-.1.4.1.9-.2 1.4.3.8-.1 1.5-.3 2.3a.6.6 0 0 0 .1.7l-.3.7c.4.5-.1 1-.1 1.5a4.4 4.4 0 0 1-.2 1.6 8.8 8.8 0 0 0-.2 1.6 11 11 0 0 1-.3 1.6c-.1.5-.1 1-.2 1.7a1 1 0 0 0 .1.4c.1.2-.4.4 0 .6s-.1.4-.2.6l-.3.4c0 .3.1.6 0 .8a4 4 0 0 0-.3 1.9l-.4.4.6.2-.2.2c.1.4-.1.7-.3 1.1a11.8 11.8 0 0 0-.7 2 8.4 8.4 0 0 1-.6 1.4L39 168l-.5.2-.8-1-.6.2-.2-.4h-.3l-.2-.9a1 1 0 0 0 .1-.3 1.1 1.1 0 0 0-.1-1c-.2-.3 0-.6-.2-1s.1-.5.1-.7-.1-.4-.1-.6a1.4 1.4 0 0 1 .2-.6c0-1.2.1-2.4.2-3.6a3.6 3.6 0 0 1 .2-1 2.5 2.5 0 0 1 .1-.8c.1-.4.1-.9.2-1.4s.1-1.3.3-1.9.1-1 .2-1.6a7.7 7.7 0 0 1 .2-1.5 4.2 4.2 0 0 0 .1-1.6c.1-.1 0-.3.1-.5a2.5 2.5 0 0 0-.1-.9l.6-.5a3.3 3.3 0 0 0 0-1 9.9 9.9 0 0 1 .5-3l.3-1.4a3.6 3.6 0 0 1 .4-.9v-.8h.6v-.5H40c-.4-.5.5-1-.1-1.5a12.1 12.1 0 0 0 1.1-3.2c0-.5.1-1 .1-1.6s.1-.3.2-.5a3.1 3.1 0 0 0 .4-1.9v-.3a1.8 1.8 0 0 0 .4-1.4l.4-.4c.1-.9-.3-1.8.4-2.6l-.2-.4h.4l-.2-.3c.3-.4.2-1 .5-1.5s.2-1.1.5-1.6v-.5c0-.6-.2-1.3.4-1.9a3.7 3.7 0 0 1 .4-1.4c.1-.5.1-1 .2-1.5s.3-1.3.4-1.9h.4c-.4-.4-.1-.8-.3-1.2a1.3 1.3 0 0 0 .6-1.4 12.9 12.9 0 0 1 .6-2.5h.1a18.4 18.4 0 0 1 .5-2.5l.7-.5-.6-.3a7.4 7.4 0 0 0 .9-3.3l.3-.3v-.9h.1a3.8 3.8 0 0 0 .3-1 9 9 0 0 1 .3-1.6c.1-.4.1-.9.6-1.1a2 2 0 0 1 .5-2l-.2-1.2.6-.9-.2-.2c.1-.7-.1-1.4.2-2s-.1-.4-.1-.6l.7-.7c.1-.7.6-1.4.4-2.2s.2-.5.6-.6.3-.4.1-.7-1.4 1-2.2 1.5A17.7 17.7 0 0 0 48 90a7.1 7.1 0 0 0-1.8 1.2l-.9.4a2.9 2.9 0 0 1-1.5.9l-.4.3a2.5 2.5 0 0 1-1 .8l-1.1.6-2.4 1.6-.2-.2-1 1-.2-.2c-.7.7-1.7.9-2.3 1.7l-.2-.2c-.3 0-.4.5-.9.5s-.5.3-.7.6a2.8 2.8 0 0 1-.9.5h-.8v.6h-1l-.4.5-1 .3-.4.4c-.1.6-.3 1.2-.4 1.8s-.3 1-.4 1.5-.2.1-.2.2-.4 2.1-.6 3.1a3.7 3.7 0 0 1-.4 1.5c-.3.3 0 .7-.4.9s-.2 1.4-.2 2a2.9 2.9 0 0 1-.3 1.6 4.8 4.8 0 0 0-.5 1.7c0 .4-.1.8-.1 1.2s0 .7-.2 1.1 0 .5 0 .7l-.4.4a24.8 24.8 0 0 0-.3 2.7c.1.3-.1.5-.2.8a8 8 0 0 0-.5 2.1v.2c-.5.6-.3 1.3-.6 1.9a2.8 2.8 0 0 0-.1.9c-.1 1.1-.7 2-.5 3.1l-.4.4v.6l-.4.4v1.9l-.5.6.3.3-.2.2c-.1.5-.1 1-.2 1.6l.2.2-.5.9.5.9-.4.8.5.7h-.6l-.7 1.2.2.8-.5.6.5.3v1.2l-.5.7-.5-.2a3.2 3.2 0 0 1-.5 1.9h.6c.1.6.1.6-.5 1l.2.6-.3 1.2-.5 1v.6a4.1 4.1 0 0 1-.4 2.2 1.5 1.5 0 0 0-.2.9l-.4.6.4.3-.5 1a9 9 0 0 0-.3 1.6 2 2 0 0 1-.4 1.3 2.6 2.6 0 0 1-.3 1.9.4.4 0 0 0-.1.3 9.3 9.3 0 0 1-.5 2.9 9.7 9.7 0 0 0-.3 1.8l-.3.3.2.5h-.5c.1.3-.1.7.2 1s.1.2 0 .2-.1 1-.3 1.5a2.5 2.5 0 0 0-.3 1.3c.1.3-.1.6-.1.9s-.1 1.3-.3 1.8a9.5 9.5 0 0 1-.5 1.8c-.1.1 0 .1 0 .2a22.8 22.8 0 0 0-.2 2.6 2.9 2.9 0 0 0-.2.9c-.1.3-.1.6-.2.8a9.7 9.7 0 0 0 0 1.7 1.1 1.1 0 0 1-.2.8.8.8 0 0 0-.2.8c0 .9-.4 1.7-.2 2.5s-.2.2-.2.3a10 10 0 0 0-.4 2.4 5.5 5.5 0 0 1-.6 1.8 1.4 1.4 0 0 0-.4 1.1c0 .2-.3.3-.4.5a3.8 3.8 0 0 1-.9 1.3h-1l-.3-.6c-.3 0-.7-.1-.9.2l-.5-.7a7.5 7.5 0 0 1 .4-2.9l-.2-.5h.4l.3-2.6a2.4 2.4 0 0 0 .5-1.4 5 5 0 0 1 .2-1.2 2.9 2.9 0 0 0 .2-.9c0-.3.2-.6.2-.9a5.3 5.3 0 0 1 .4-1.7 3 3 0 0 0 .2-1c-.1-.3.2-.5.2-.9s.3-1 .3-1.5.6-1.7.5-2.6a3.5 3.5 0 0 0 .2-1.7l.5-1c.1-1.1.7-2.2.5-3.3l.4-.8-.2-.2a4.7 4.7 0 0 0 .5-2.6 1.3 1.3 0 0 0 .5-1.1 5.9 5.9 0 0 1 .2-1.4 7.7 7.7 0 0 1 .2-1.5c.1-.5.3-.9.4-1.3a2.8 2.8 0 0 0 .1-.9 4.7 4.7 0 0 1 .6-1.9v-.2a9.2 9.2 0 0 1 .7-3.6v-.2l.3-2.2.3-.2a14.7 14.7 0 0 1 1.2-5.5l-.2-.6.6-.4v-.7a6.2 6.2 0 0 0 .3-1c.1-.6.1-1.3.2-1.9s.1-1.4.6-2 .6-2.2.4-3.3l.3-.3a10.5 10.5 0 0 1 .6-2.1 1.5 1.5 0 0 0-.1-1.3l.6-1.2a2.1 2.1 0 0 1 .3-1.5c.1-.2-.2-.4.1-.6s.1-.5.2-.7a1.3 1.3 0 0 1 .1-.6c.2-.2 0-.6.1-.8a11 11 0 0 1 .6-2.6 3.1 3.1 0 0 1 .5-1c0-.2-.2-.6-.1-.8s.1-.7.2-1l.4-1a4.1 4.1 0 0 1 0-1.1c.1-.4.1-.9.2-1.3a1.4 1.4 0 0 0 .2-.6 1.9 1.9 0 0 1 .6-1.6l-.3-.5.4-.3c.2-.5-.1-.9.2-1.3s0-.8.2-1.2.1-1 .3-1.5a14.6 14.6 0 0 0 .5-2 7.7 7.7 0 0 1 .5-1.9 11.1 11.1 0 0 0 .2-1.7l.5-1.1c.1-.5 0-1.1.4-1.5a4.1 4.1 0 0 0 0-1.1 5.9 5.9 0 0 1 .5-1.9 8.3 8.3 0 0 0 .7-3.2 1 1 0 0 0 .4-1.1 1.7 1.7 0 0 1 .4-1.1c-.1-.8.7-1.6.4-2.5a1.2 1.2 0 0 0 .4-1.1l.3-1.4.3-1c.1-.3.1-.6.2-1s.3-1.4.5-2.2.1-.3.1-.4a4.1 4.1 0 0 1 .3-1.6 4.5 4.5 0 0 0 .3-1.6 11.2 11.2 0 0 1 .8-2.6 8.2 8.2 0 0 1 .2-2.2 6.5 6.5 0 0 0 .4-2l.4-.4c-.2-1.5.6-2.9.6-4.4l.6-.6-.4-.6.4-1.3.7-.4h-.5a6.2 6.2 0 0 1 .2-1.9 6.4 6.4 0 0 0 .2-.7c0-.2.2-.5.1-.7s.2-.4.1-.6a.2.2 0 0 1 0-.3 10.4 10.4 0 0 1 .4-1c.1-.4-.1-.8.1-1.2a6.1 6.1 0 0 0 .1-1.4l.3-.6c0-.1-.1-.1-.1-.2s0-1.2.4-1.8.1-.7.2-1.1a10.3 10.3 0 0 1 .5-2.4c.1-.3.1-.6.2-1s0-1 .9-2.2l-.4-.2a2 2 0 0 1 .1-1.3c.3-.5.2-1.1.4-1.6a2.2 2.2 0 0 0 .2-1.6v-.3c.6-.6.4-1.6.8-2.3s0-.5 0-.8a1.9 1.9 0 0 0 .2-.7 9.8 9.8 0 0 1 .6-2.3c.1-.2 0-.5.1-.8l.3-1v-.2c.6-.8.5-1.9.8-2.8s.1-.7.4-.9.1-.4.2-.5.1-.9.3-1.3.3-.8.5-1.2.6-2.7 1.4-4 .1-.6.2-.9.4-1 .6-1.5h-.2l-.4.4h-.2v.6c-1.2.8-1.8 2.1-2.8 3.3l-.6.3v.3l-2.2 2.6-.2.3a3.5 3.5 0 0 1-1.3 1.4c-.4.2-.8.3-.7 1h.1l-1.6 2.2-.5-.2a.3.3 0 0 0-.1.2c.2.7.2.6-.3 1.2l-.8 1.3c-.3.6-1.1 1-1.4 1.7s-1.9 2.8-3.1 4a4.1 4.1 0 0 0-.7 1.1l-1.3 1.8a.9.9 0 0 1-.6.6c-.6.2-.6.9-1.1 1.2s0 .2 0 .3a18.3 18.3 0 0 0-2.6 3.6l-.7.7c-.2.2-.5.4-.5.8l-1 .3.2.8-1.2 1.5-.9.7a.7.7 0 0 0-.5.8c-.3.5-.9.8-1.2 1.4s-.9.6-1.2 1.1a8.3 8.3 0 0 1-1.3 1.4 13.6 13.6 0 0 1-1.2 1.2c-.5.4-.8 1-1.4 1.3h-.5l-1.1 1.4h-.4c-.3-.1-.1.5-.5.6s-.4.3-.6.5h-.4c-.1.2-.2.6-.6.7s-.5.4-.8.7h-.4c-.9.7-1.9 1.2-2.8 1.8a2.7 2.7 0 0 1-1.8.4L0 68.3c0-.8 0-.8 1.4-2.1a4 4 0 0 0 2-1.1 23.1 23.1 0 0 0 1.9-1.4l.6-.3.9-.8.2.2.3-.4H8l.5-.9c.1-.2.2-.5.3-.5s1.1-.9 1.7-1.2l.7-.3c.3-.3.4-.7.9-.8l.2-.3c.2-.4.4-.9.8-1s1.5-1.8 2.4-2.6l1.3-1.2c0-.9.9-1.3 1.4-1.8a.8.8 0 0 1-.2-.5l1-.3c.1-.3.1-.7.6-.8s.7-.8.8-1.4.8-.5 1-1a3.4 3.4 0 0 1 .8-.9l.9-1.6c.2-.3.2-.6.7-.6s.4-.3.4-.7 1.2-1.6 1.9-2.3a24 24 0 0 0 1.8-2.6l1.4-1.6a13.3 13.3 0 0 1 1.4-1.9c.4-.3.5-.9.8-1.3s.9-.6 1-1.1a7.2 7.2 0 0 0 1.7-2.2 2.7 2.7 0 0 1 .7-.8l.7-.9c.4-.5.8-.9 1.2-1.5v-.2a2.2 2.2 0 0 0 .8-1.3l1.4-1.8c.7-1 1.5-1.9 2.3-2.9v-.2l2.4-2.9h.6l-.2-.6a19.2 19.2 0 0 0 1.6-2.1l1.5-2 .7-1.1a18.3 18.3 0 0 0 1.6-2.6c.2-.5.5-.9.7-1.3s.5-.9.7-1.3l.7-1.2a2.6 2.6 0 0 1 .8-1.3l.2-.3a19.4 19.4 0 0 1 1.5-2.4c.2-.4.5-.4.7-.6a2.3 2.3 0 0 1 .7-.7l.5-.6.8-.2v.4l1-.5.5.2c.1.1.3 0 .5 0l-.5 2.4a2.1 2.1 0 0 0-1.2 1.4c-.9 1.1-1.6 2.3-2.4 3.5s-.3.2-.5.4v.4H54l-.6 1.3-.6.5-.3 1.1-.6.5c0 .9-.2 1.6-1.1 1.9a2.5 2.5 0 0 1-.4 1.1 3.8 3.8 0 0 0-.6 1.6l-.7.5h.1c-.1.2-.1.4-.2.5s-.8 2.2-1.4 3.2-.4.9-.5 1.4a2.4 2.4 0 0 1-.5 1.4c.1.8-.7 1.3-.6 2.1s-.4.8-.5 1.2-.1.7-.2.9zm-2.9 60.9l-.8.6c-.2.1-.7.6-.9.6s-.9.5-1.4.6-.4.3-.5.6-.4.2-.6.3a10.1 10.1 0 0 1-2.5 1.7c-.1.1-.3.2-.3.4a3 3 0 0 1-1.3 1.2v.4h.2a2.7 2.7 0 0 0 1.7-.8 4.4 4.4 0 0 1 1.8-.9 5 5 0 0 1 2.1-1.3l.5-.6c.8 0 1-.7 1.5-1s1.6-1.1 2.4-1.2.8-1 1.6-1 1.6-1 2.1-1.8h.4c.5-.7 1.6-.8 1.8-1.7l.9-.3v-.5h-.3a3.7 3.7 0 0 0-2 .9l-1.3.8-.3-.3c-.1.3-.2.6-.5.7a4.1 4.1 0 0 1-1.1.7L43.4 88c-.2.2-.5.2-1 .5zm-17.6 24a2.8 2.8 0 0 0 .7-1.3 1.9 1.9 0 0 1-.1-1c.3-.7.4-1.4.6-2a2.5 2.5 0 0 1 .8-1.6v-1.3l.4-.8-.3-.3a4.3 4.3 0 0 0 .5-3.5l-.4.8h.1l-.6 1.9c0 .3-.1.6-.1.9a2.6 2.6 0 0 1-.4 1.5 1.2 1.2 0 0 0-.3.9c.2.5-.1 1-.2 1.4s-.1.4-.1.6a1.3 1.3 0 0 1-.4 1c-.1.7.1 1.4-.4 1.8z"/></svg>